<?xml version="1.0" encoding="UTF-8" standalone="no"?>
<!DOCTYPE svg PUBLIC "-//W3C//DTD SVG 1.1//EN"
 "http://www.w3.org/Graphics/SVG/1.1/DTD/svg11.dtd">
<!-- Generated by graphviz version 5.0.0 (20220707.1540)
 -->
<!-- Title: dependencies Pages: 1 -->
<svg width="755pt" height="247pt"
 viewBox="0.00 0.00 755.00 246.80" xmlns="http://www.w3.org/2000/svg" xmlns:xlink="http://www.w3.org/1999/xlink">
<g id="graph0" class="graph" transform="scale(1 1) rotate(0) translate(4 242.8)">
<title>dependencies</title>
<polygon fill="white" stroke="transparent" points="-4,4 -4,-242.8 751,-242.8 751,4 -4,4"/>
<text text-anchor="middle" x="373.5" y="-8.2" font-family="sans-serif" font-size="14.00">dependencies</text>
<g id="clust1" class="cluster">
<title>cluster_AppModule</title>
<polygon fill="none" stroke="black" stroke-dasharray="1,5" points="8,-32.8 8,-230.8 739,-230.8 739,-32.8 8,-32.8"/>
</g>
<g id="clust6" class="cluster">
<title>cluster_AppModule_imports</title>
<polygon fill="none" stroke="black" points="485,-40.8 485,-92.8 731,-92.8 731,-40.8 485,-40.8"/>
</g>
<g id="clust8" class="cluster">
<title>cluster_AppModule_bootstrap</title>
<polygon fill="none" stroke="black" points="354,-170.8 354,-222.8 478,-222.8 478,-170.8 354,-170.8"/>
</g>
<g id="clust2" class="cluster">
<title>cluster_AppModule_declarations</title>
<polygon fill="none" stroke="black" points="16,-40.8 16,-92.8 477,-92.8 477,-40.8 16,-40.8"/>
</g>
<!-- AppComponent -->
<g id="node1" class="node">
<title>AppComponent</title>
<polygon fill="#ffffb3" stroke="black" points="468.94,-84.8 363.06,-84.8 363.06,-48.8 468.94,-48.8 468.94,-84.8"/>
<text text-anchor="middle" x="416" y="-62.6" font-family="Times,serif" font-size="14.00">AppComponent</text>
</g>
<!-- AppModule -->
<g id="node4" class="node">
<title>AppModule</title>
<polygon fill="#8dd3c7" stroke="black" points="457.66,-149.8 454.66,-153.8 433.66,-153.8 430.66,-149.8 374.34,-149.8 374.34,-113.8 457.66,-113.8 457.66,-149.8"/>
<text text-anchor="middle" x="416" y="-127.6" font-family="Times,serif" font-size="14.00">AppModule</text>
</g>
<!-- AppComponent&#45;&gt;AppModule -->
<g id="edge1" class="edge">
<title>AppComponent&#45;&gt;AppModule</title>
<path fill="none" stroke="black" d="M416,-84.91C416,-84.91 416,-103.79 416,-103.79"/>
<polygon fill="black" stroke="black" points="412.5,-103.79 416,-113.79 419.5,-103.79 412.5,-103.79"/>
</g>
<!-- LoginComponent -->
<g id="node2" class="node">
<title>LoginComponent</title>
<polygon fill="#ffffb3" stroke="black" points="345.27,-84.8 230.73,-84.8 230.73,-48.8 345.27,-48.8 345.27,-84.8"/>
<text text-anchor="middle" x="288" y="-62.6" font-family="Times,serif" font-size="14.00">LoginComponent</text>
</g>
<!-- LoginComponent&#45;&gt;AppModule -->
<g id="edge2" class="edge">
<title>LoginComponent&#45;&gt;AppModule</title>
<path fill="none" stroke="black" d="M288,-84.82C288,-102.17 288,-125.8 288,-125.8 288,-125.8 364.09,-125.8 364.09,-125.8"/>
<polygon fill="black" stroke="black" points="364.09,-129.3 374.09,-125.8 364.09,-122.3 364.09,-129.3"/>
</g>
<!-- RecoveryPasswordComponent -->
<g id="node3" class="node">
<title>RecoveryPasswordComponent</title>
<polygon fill="#ffffb3" stroke="black" points="212.14,-84.8 23.86,-84.8 23.86,-48.8 212.14,-48.8 212.14,-84.8"/>
<text text-anchor="middle" x="118" y="-62.6" font-family="Times,serif" font-size="14.00">RecoveryPasswordComponent</text>
</g>
<!-- RecoveryPasswordComponent&#45;&gt;AppModule -->
<g id="edge3" class="edge">
<title>RecoveryPasswordComponent&#45;&gt;AppModule</title>
<path fill="none" stroke="black" d="M118,-85.08C118,-106.12 118,-137.8 118,-137.8 118,-137.8 364.25,-137.8 364.25,-137.8"/>
<polygon fill="black" stroke="black" points="364.25,-141.3 374.25,-137.8 364.25,-134.3 364.25,-141.3"/>
</g>
<!-- AppComponent  -->
<g id="node7" class="node">
<title>AppComponent </title>
<polygon fill="#80b1d3" stroke="black" points="470.44,-214.8 361.56,-214.8 361.56,-178.8 470.44,-178.8 470.44,-214.8"/>
<text text-anchor="middle" x="416" y="-192.6" font-family="Times,serif" font-size="14.00">AppComponent </text>
</g>
<!-- AppModule&#45;&gt;AppComponent  -->
<g id="edge6" class="edge">
<title>AppModule&#45;&gt;AppComponent </title>
<path fill="none" stroke="black" stroke-dasharray="1,5" d="M416,-149.91C416,-149.91 416,-168.79 416,-168.79"/>
<polygon fill="black" stroke="black" points="412.5,-168.79 416,-178.79 419.5,-168.79 412.5,-168.79"/>
</g>
<!-- AppRoutingModule -->
<g id="node5" class="node">
<title>AppRoutingModule</title>
<polygon fill="#8dd3c7" stroke="black" points="723.28,-84.8 720.28,-88.8 699.28,-88.8 696.28,-84.8 594.72,-84.8 594.72,-48.8 723.28,-48.8 723.28,-84.8"/>
<text text-anchor="middle" x="659" y="-62.6" font-family="Times,serif" font-size="14.00">AppRoutingModule</text>
</g>
<!-- AppRoutingModule&#45;&gt;AppModule -->
<g id="edge4" class="edge">
<title>AppRoutingModule&#45;&gt;AppModule</title>
<path fill="none" stroke="black" d="M659,-85.08C659,-106.12 659,-137.8 659,-137.8 659,-137.8 467.77,-137.8 467.77,-137.8"/>
<polygon fill="black" stroke="black" points="467.77,-134.3 457.77,-137.8 467.77,-141.3 467.77,-134.3"/>
</g>
<!-- DndModule -->
<g id="node6" class="node">
<title>DndModule</title>
<polygon fill="#8dd3c7" stroke="black" points="576.66,-84.8 573.66,-88.8 552.66,-88.8 549.66,-84.8 493.34,-84.8 493.34,-48.8 576.66,-48.8 576.66,-84.8"/>
<text text-anchor="middle" x="535" y="-62.6" font-family="Times,serif" font-size="14.00">DndModule</text>
</g>
<!-- DndModule&#45;&gt;AppModule -->
<g id="edge5" class="edge">
<title>DndModule&#45;&gt;AppModule</title>
<path fill="none" stroke="black" d="M535,-84.82C535,-102.17 535,-125.8 535,-125.8 535,-125.8 467.95,-125.8 467.95,-125.8"/>
<polygon fill="black" stroke="black" points="467.95,-122.3 457.95,-125.8 467.95,-129.3 467.95,-122.3"/>
</g>
</g>
</svg>
