<?xml version="1.0" encoding="UTF-8" standalone="no"?>
<!DOCTYPE svg PUBLIC "-//W3C//DTD SVG 1.1//EN"
 "http://www.w3.org/Graphics/SVG/1.1/DTD/svg11.dtd">
<!-- Generated by graphviz version 5.0.0 (20220707.1540)
 -->
<!-- Title: dependencies Pages: 1 -->
<svg width="278pt" height="247pt"
 viewBox="0.00 0.00 278.00 246.80" xmlns="http://www.w3.org/2000/svg" xmlns:xlink="http://www.w3.org/1999/xlink">
<g id="graph0" class="graph" transform="scale(1 1) rotate(0) translate(4 242.8)">
<title>dependencies</title>
<polygon fill="white" stroke="transparent" points="-4,4 -4,-242.8 274,-242.8 274,4 -4,4"/>
<text text-anchor="middle" x="135" y="-8.2" font-family="sans-serif" font-size="14.00">dependencies</text>
<g id="clust1" class="cluster">
<title>cluster_DndModule</title>
<polygon fill="none" stroke="black" stroke-dasharray="1,5" points="8,-32.8 8,-230.8 262,-230.8 262,-32.8 8,-32.8"/>
</g>
<g id="clust6" class="cluster">
<title>cluster_DndModule_exports</title>
<polygon fill="none" stroke="black" points="16,-170.8 16,-222.8 254,-222.8 254,-170.8 16,-170.8"/>
</g>
<g id="clust2" class="cluster">
<title>cluster_DndModule_declarations</title>
<polygon fill="none" stroke="black" points="19,-40.8 19,-92.8 251,-92.8 251,-40.8 19,-40.8"/>
</g>
<!-- DndComponent -->
<g id="node1" class="node">
<title>DndComponent</title>
<polygon fill="#ffffb3" stroke="black" points="242.94,-84.8 137.06,-84.8 137.06,-48.8 242.94,-48.8 242.94,-84.8"/>
<text text-anchor="middle" x="190" y="-62.6" font-family="Times,serif" font-size="14.00">DndComponent</text>
</g>
<!-- DndModule -->
<g id="node3" class="node">
<title>DndModule</title>
<polygon fill="#8dd3c7" stroke="black" points="115.66,-149.8 112.66,-153.8 91.66,-153.8 88.66,-149.8 32.34,-149.8 32.34,-113.8 115.66,-113.8 115.66,-149.8"/>
<text text-anchor="middle" x="74" y="-127.6" font-family="Times,serif" font-size="14.00">DndModule</text>
</g>
<!-- DndComponent&#45;&gt;DndModule -->
<g id="edge1" class="edge">
<title>DndComponent&#45;&gt;DndModule</title>
<path fill="none" stroke="black" d="M207.66,-84.82C207.66,-102.17 207.66,-125.8 207.66,-125.8 207.66,-125.8 125.92,-125.8 125.92,-125.8"/>
<polygon fill="black" stroke="black" points="125.92,-122.3 115.92,-125.8 125.92,-129.3 125.92,-122.3"/>
</g>
<!-- DndDirective -->
<g id="node2" class="node">
<title>DndDirective</title>
<polygon fill="#ffffb3" stroke="black" points="119.19,-84.8 26.81,-84.8 26.81,-48.8 119.19,-48.8 119.19,-84.8"/>
<text text-anchor="middle" x="73" y="-62.6" font-family="Times,serif" font-size="14.00">DndDirective</text>
</g>
<!-- DndDirective&#45;&gt;DndModule -->
<g id="edge2" class="edge">
<title>DndDirective&#45;&gt;DndModule</title>
<path fill="none" stroke="black" d="M74,-84.91C74,-84.91 74,-103.79 74,-103.79"/>
<polygon fill="black" stroke="black" points="70.5,-103.79 74,-113.79 77.5,-103.79 70.5,-103.79"/>
</g>
<!-- DndComponent  -->
<g id="node4" class="node">
<title>DndComponent </title>
<polygon fill="#fb8072" stroke="black" points="246.44,-214.8 137.56,-214.8 137.56,-178.8 246.44,-178.8 246.44,-214.8"/>
<text text-anchor="middle" x="192" y="-192.6" font-family="Times,serif" font-size="14.00">DndComponent </text>
</g>
<!-- DndModule&#45;&gt;DndComponent  -->
<g id="edge3" class="edge">
<title>DndModule&#45;&gt;DndComponent </title>
<path fill="none" stroke="black" stroke-dasharray="5,2" d="M115.81,-137.8C142.68,-137.8 172.59,-137.8 172.59,-137.8 172.59,-137.8 172.59,-168.78 172.59,-168.78"/>
<polygon fill="black" stroke="black" points="169.09,-168.78 172.59,-178.78 176.09,-168.78 169.09,-168.78"/>
</g>
<!-- DndDirective  -->
<g id="node5" class="node">
<title>DndDirective </title>
<polygon fill="#fb8072" stroke="black" points="119.69,-214.8 24.31,-214.8 24.31,-178.8 119.69,-178.8 119.69,-214.8"/>
<text text-anchor="middle" x="72" y="-192.6" font-family="Times,serif" font-size="14.00">DndDirective </text>
</g>
<!-- DndModule&#45;&gt;DndDirective  -->
<g id="edge4" class="edge">
<title>DndModule&#45;&gt;DndDirective </title>
<path fill="none" stroke="black" stroke-dasharray="5,2" d="M74,-149.91C74,-149.91 74,-168.79 74,-168.79"/>
<polygon fill="black" stroke="black" points="70.5,-168.79 74,-178.79 77.5,-168.79 70.5,-168.79"/>
</g>
</g>
</svg>
