<?xml version="1.0" encoding="UTF-8" standalone="no"?>
<!DOCTYPE svg PUBLIC "-//W3C//DTD SVG 1.1//EN"
 "http://www.w3.org/Graphics/SVG/1.1/DTD/svg11.dtd">
<!-- Generated by graphviz version 5.0.0 (20220707.1540)
 -->
<!-- Title: dependencies Pages: 1 -->
<svg width="711pt" height="174pt"
 viewBox="0.00 0.00 711.00 173.80" xmlns="http://www.w3.org/2000/svg" xmlns:xlink="http://www.w3.org/1999/xlink">
<g id="graph0" class="graph" transform="scale(1 1) rotate(0) translate(4 169.8)">
<title>dependencies</title>
<polygon fill="white" stroke="transparent" points="-4,4 -4,-169.8 707,-169.8 707,4 -4,4"/>
<text text-anchor="middle" x="351.5" y="-8.2" font-family="sans-serif" font-size="14.00">dependencies</text>
<g id="clust1" class="cluster">
<title>cluster_PagesModule</title>
<polygon fill="none" stroke="black" stroke-dasharray="1,5" points="8,-32.8 8,-157.8 695,-157.8 695,-32.8 8,-32.8"/>
</g>
<g id="clust6" class="cluster">
<title>cluster_PagesModule_imports</title>
<polygon fill="none" stroke="black" points="432,-40.8 432,-92.8 687,-92.8 687,-40.8 432,-40.8"/>
</g>
<g id="clust2" class="cluster">
<title>cluster_PagesModule_declarations</title>
<polygon fill="none" stroke="black" points="16,-40.8 16,-92.8 424,-92.8 424,-40.8 16,-40.8"/>
</g>
<!-- HomeComponent -->
<g id="node1" class="node">
<title>HomeComponent</title>
<polygon fill="#ffffb3" stroke="black" points="415.55,-84.8 300.45,-84.8 300.45,-48.8 415.55,-48.8 415.55,-84.8"/>
<text text-anchor="middle" x="358" y="-62.6" font-family="Times,serif" font-size="14.00">HomeComponent</text>
</g>
<!-- PagesModule -->
<g id="node4" class="node">
<title>PagesModule</title>
<polygon fill="#8dd3c7" stroke="black" points="404.21,-149.8 401.21,-153.8 380.21,-153.8 377.21,-149.8 311.79,-149.8 311.79,-113.8 404.21,-113.8 404.21,-149.8"/>
<text text-anchor="middle" x="358" y="-127.6" font-family="Times,serif" font-size="14.00">PagesModule</text>
</g>
<!-- HomeComponent&#45;&gt;PagesModule -->
<g id="edge1" class="edge">
<title>HomeComponent&#45;&gt;PagesModule</title>
<path fill="none" stroke="black" d="M358,-84.91C358,-84.91 358,-103.79 358,-103.79"/>
<polygon fill="black" stroke="black" points="354.5,-103.79 358,-113.79 361.5,-103.79 354.5,-103.79"/>
</g>
<!-- PagesComponent -->
<g id="node2" class="node">
<title>PagesComponent</title>
<polygon fill="#ffffb3" stroke="black" points="281.99,-84.8 168.01,-84.8 168.01,-48.8 281.99,-48.8 281.99,-84.8"/>
<text text-anchor="middle" x="225" y="-62.6" font-family="Times,serif" font-size="14.00">PagesComponent</text>
</g>
<!-- PagesComponent&#45;&gt;PagesModule -->
<g id="edge2" class="edge">
<title>PagesComponent&#45;&gt;PagesModule</title>
<path fill="none" stroke="black" d="M225,-84.82C225,-102.17 225,-125.8 225,-125.8 225,-125.8 301.86,-125.8 301.86,-125.8"/>
<polygon fill="black" stroke="black" points="301.86,-129.3 311.86,-125.8 301.86,-122.3 301.86,-129.3"/>
</g>
<!-- SideBarComponent -->
<g id="node3" class="node">
<title>SideBarComponent</title>
<polygon fill="#ffffb3" stroke="black" points="150.44,-84.8 23.56,-84.8 23.56,-48.8 150.44,-48.8 150.44,-84.8"/>
<text text-anchor="middle" x="87" y="-62.6" font-family="Times,serif" font-size="14.00">SideBarComponent</text>
</g>
<!-- SideBarComponent&#45;&gt;PagesModule -->
<g id="edge3" class="edge">
<title>SideBarComponent&#45;&gt;PagesModule</title>
<path fill="none" stroke="black" d="M87,-85.08C87,-106.12 87,-137.8 87,-137.8 87,-137.8 301.72,-137.8 301.72,-137.8"/>
<polygon fill="black" stroke="black" points="301.72,-141.3 311.72,-137.8 301.72,-134.3 301.72,-141.3"/>
</g>
<!-- DndModule -->
<g id="node5" class="node">
<title>DndModule</title>
<polygon fill="#8dd3c7" stroke="black" points="678.66,-84.8 675.66,-88.8 654.66,-88.8 651.66,-84.8 595.34,-84.8 595.34,-48.8 678.66,-48.8 678.66,-84.8"/>
<text text-anchor="middle" x="637" y="-62.6" font-family="Times,serif" font-size="14.00">DndModule</text>
</g>
<!-- DndModule&#45;&gt;PagesModule -->
<g id="edge4" class="edge">
<title>DndModule&#45;&gt;PagesModule</title>
<path fill="none" stroke="black" d="M637,-85.08C637,-106.12 637,-137.8 637,-137.8 637,-137.8 414.38,-137.8 414.38,-137.8"/>
<polygon fill="black" stroke="black" points="414.38,-134.3 404.38,-137.8 414.38,-141.3 414.38,-134.3"/>
</g>
<!-- PagesRoutingModule -->
<g id="node6" class="node">
<title>PagesRoutingModule</title>
<polygon fill="#8dd3c7" stroke="black" points="577.83,-84.8 574.83,-88.8 553.83,-88.8 550.83,-84.8 440.17,-84.8 440.17,-48.8 577.83,-48.8 577.83,-84.8"/>
<text text-anchor="middle" x="509" y="-62.6" font-family="Times,serif" font-size="14.00">PagesRoutingModule</text>
</g>
<!-- PagesRoutingModule&#45;&gt;PagesModule -->
<g id="edge5" class="edge">
<title>PagesRoutingModule&#45;&gt;PagesModule</title>
<path fill="none" stroke="black" d="M509,-84.82C509,-102.17 509,-125.8 509,-125.8 509,-125.8 414.13,-125.8 414.13,-125.8"/>
<polygon fill="black" stroke="black" points="414.13,-122.3 404.13,-125.8 414.13,-129.3 414.13,-122.3"/>
</g>
</g>
</svg>
