<?xml version="1.0" encoding="UTF-8" standalone="no"?>
<!DOCTYPE svg PUBLIC "-//W3C//DTD SVG 1.1//EN"
 "http://www.w3.org/Graphics/SVG/1.1/DTD/svg11.dtd">
<!-- Generated by graphviz version 5.0.0 (20220707.1540)
 -->
<!-- Title: dependencies Pages: 1 -->
<svg width="1851pt" height="253pt"
 viewBox="0.00 0.00 1851.00 252.80" xmlns="http://www.w3.org/2000/svg" xmlns:xlink="http://www.w3.org/1999/xlink">
<g id="graph0" class="graph" transform="scale(1 1) rotate(0) translate(4 248.8)">
<title>dependencies</title>
<polygon fill="white" stroke="transparent" points="-4,4 -4,-248.8 1847,-248.8 1847,4 -4,4"/>
<text text-anchor="middle" x="921.5" y="-8.2" font-family="sans-serif" font-size="14.00">dependencies</text>
<g id="clust1" class="cluster">
<title>cluster_AppModule</title>
<polygon fill="none" stroke="black" stroke-dasharray="1,5" points="8,-32.8 8,-236.8 739,-236.8 739,-32.8 8,-32.8"/>
</g>
<g id="clust2" class="cluster">
<title>cluster_AppModule_declarations</title>
<polygon fill="none" stroke="black" points="16,-40.8 16,-92.8 477,-92.8 477,-40.8 16,-40.8"/>
</g>
<g id="clust6" class="cluster">
<title>cluster_AppModule_imports</title>
<polygon fill="none" stroke="black" points="485,-40.8 485,-92.8 731,-92.8 731,-40.8 485,-40.8"/>
</g>
<g id="clust8" class="cluster">
<title>cluster_AppModule_bootstrap</title>
<polygon fill="none" stroke="black" points="354,-176.8 354,-228.8 478,-228.8 478,-176.8 354,-176.8"/>
</g>
<g id="clust16" class="cluster">
<title>cluster_DndModule</title>
<polygon fill="none" stroke="black" stroke-dasharray="1,5" points="747,-100.8 747,-168.8 1241,-168.8 1241,-100.8 747,-100.8"/>
</g>
<g id="clust17" class="cluster">
<title>cluster_DndModule_declarations</title>
<polygon fill="none" stroke="black" points="1001,-108.8 1001,-160.8 1233,-160.8 1233,-108.8 1001,-108.8"/>
</g>
<g id="clust21" class="cluster">
<title>cluster_DndModule_exports</title>
<polygon fill="none" stroke="black" points="755,-108.8 755,-160.8 993,-160.8 993,-108.8 755,-108.8"/>
</g>
<g id="clust24" class="cluster">
<title>cluster_PagesModule</title>
<polygon fill="none" stroke="black" stroke-dasharray="1,5" points="1249,-32.8 1249,-160.8 1835,-160.8 1835,-32.8 1249,-32.8"/>
</g>
<g id="clust25" class="cluster">
<title>cluster_PagesModule_declarations</title>
<polygon fill="none" stroke="black" points="1419,-40.8 1419,-92.8 1827,-92.8 1827,-40.8 1419,-40.8"/>
</g>
<g id="clust29" class="cluster">
<title>cluster_PagesModule_imports</title>
<polygon fill="none" stroke="black" points="1257,-40.8 1257,-92.8 1411,-92.8 1411,-40.8 1257,-40.8"/>
</g>
<!-- AppComponent -->
<g id="node1" class="node">
<title>AppComponent</title>
<polygon fill="#ffffb3" stroke="black" points="468.94,-84.8 363.06,-84.8 363.06,-48.8 468.94,-48.8 468.94,-84.8"/>
<text text-anchor="middle" x="416" y="-62.6" font-family="Times,serif" font-size="14.00">AppComponent</text>
</g>
<!-- AppModule -->
<g id="node4" class="node">
<title>AppModule</title>
<polygon fill="#8dd3c7" stroke="black" points="457.66,-152.8 454.66,-156.8 433.66,-156.8 430.66,-152.8 374.34,-152.8 374.34,-116.8 457.66,-116.8 457.66,-152.8"/>
<text text-anchor="middle" x="416" y="-130.6" font-family="Times,serif" font-size="14.00">AppModule</text>
</g>
<!-- AppComponent&#45;&gt;AppModule -->
<g id="edge1" class="edge">
<title>AppComponent&#45;&gt;AppModule</title>
<path fill="none" stroke="black" d="M416,-85.02C416,-85.02 416,-106.53 416,-106.53"/>
<polygon fill="black" stroke="black" points="412.5,-106.53 416,-116.53 419.5,-106.53 412.5,-106.53"/>
</g>
<!-- LoginComponent -->
<g id="node2" class="node">
<title>LoginComponent</title>
<polygon fill="#ffffb3" stroke="black" points="345.27,-84.8 230.73,-84.8 230.73,-48.8 345.27,-48.8 345.27,-84.8"/>
<text text-anchor="middle" x="288" y="-62.6" font-family="Times,serif" font-size="14.00">LoginComponent</text>
</g>
<!-- LoginComponent&#45;&gt;AppModule -->
<g id="edge2" class="edge">
<title>LoginComponent&#45;&gt;AppModule</title>
<path fill="none" stroke="black" d="M288,-85.07C288,-103.36 288,-128.8 288,-128.8 288,-128.8 364.09,-128.8 364.09,-128.8"/>
<polygon fill="black" stroke="black" points="364.09,-132.3 374.09,-128.8 364.09,-125.3 364.09,-132.3"/>
</g>
<!-- RecoveryPasswordComponent -->
<g id="node3" class="node">
<title>RecoveryPasswordComponent</title>
<polygon fill="#ffffb3" stroke="black" points="212.14,-84.8 23.86,-84.8 23.86,-48.8 212.14,-48.8 212.14,-84.8"/>
<text text-anchor="middle" x="118" y="-62.6" font-family="Times,serif" font-size="14.00">RecoveryPasswordComponent</text>
</g>
<!-- RecoveryPasswordComponent&#45;&gt;AppModule -->
<g id="edge3" class="edge">
<title>RecoveryPasswordComponent&#45;&gt;AppModule</title>
<path fill="none" stroke="black" d="M118,-85.09C118,-107.01 118,-140.8 118,-140.8 118,-140.8 364.25,-140.8 364.25,-140.8"/>
<polygon fill="black" stroke="black" points="364.25,-144.3 374.25,-140.8 364.25,-137.3 364.25,-144.3"/>
</g>
<!-- AppComponent  -->
<g id="node7" class="node">
<title>AppComponent </title>
<polygon fill="#80b1d3" stroke="black" points="470.44,-220.8 361.56,-220.8 361.56,-184.8 470.44,-184.8 470.44,-220.8"/>
<text text-anchor="middle" x="416" y="-198.6" font-family="Times,serif" font-size="14.00">AppComponent </text>
</g>
<!-- AppModule&#45;&gt;AppComponent  -->
<g id="edge6" class="edge">
<title>AppModule&#45;&gt;AppComponent </title>
<path fill="none" stroke="black" stroke-dasharray="1,5" d="M416,-153.02C416,-153.02 416,-174.53 416,-174.53"/>
<polygon fill="black" stroke="black" points="412.5,-174.53 416,-184.53 419.5,-174.53 412.5,-174.53"/>
</g>
<!-- AppRoutingModule -->
<g id="node5" class="node">
<title>AppRoutingModule</title>
<polygon fill="#8dd3c7" stroke="black" points="621.28,-84.8 618.28,-88.8 597.28,-88.8 594.28,-84.8 492.72,-84.8 492.72,-48.8 621.28,-48.8 621.28,-84.8"/>
<text text-anchor="middle" x="557" y="-62.6" font-family="Times,serif" font-size="14.00">AppRoutingModule</text>
</g>
<!-- AppRoutingModule&#45;&gt;AppModule -->
<g id="edge4" class="edge">
<title>AppRoutingModule&#45;&gt;AppModule</title>
<path fill="none" stroke="black" d="M557,-84.82C557,-102.17 557,-125.8 557,-125.8 557,-125.8 467.92,-125.8 467.92,-125.8"/>
<polygon fill="black" stroke="black" points="467.92,-122.3 457.92,-125.8 467.92,-129.3 467.92,-122.3"/>
</g>
<!-- DndModule -->
<g id="node6" class="node">
<title>DndModule</title>
<polygon fill="#8dd3c7" stroke="black" points="722.66,-84.8 719.66,-88.8 698.66,-88.8 695.66,-84.8 639.34,-84.8 639.34,-48.8 722.66,-48.8 722.66,-84.8"/>
<text text-anchor="middle" x="681" y="-62.6" font-family="Times,serif" font-size="14.00">DndModule</text>
</g>
<!-- DndModule&#45;&gt;AppModule -->
<g id="edge5" class="edge">
<title>DndModule&#45;&gt;AppModule</title>
<path fill="none" stroke="black" d="M667.06,-85.02C667.06,-105.17 667.06,-134.8 667.06,-134.8 667.06,-134.8 467.74,-134.8 467.74,-134.8"/>
<polygon fill="black" stroke="black" points="467.74,-131.3 457.74,-134.8 467.74,-138.3 467.74,-131.3"/>
</g>
<!-- DndComponent  -->
<g id="node10" class="node">
<title>DndComponent </title>
<polygon fill="#fb8072" stroke="black" points="985.44,-152.8 876.56,-152.8 876.56,-116.8 985.44,-116.8 985.44,-152.8"/>
<text text-anchor="middle" x="931" y="-130.6" font-family="Times,serif" font-size="14.00">DndComponent </text>
</g>
<!-- DndModule&#45;&gt;DndComponent  -->
<g id="edge9" class="edge">
<title>DndModule&#45;&gt;DndComponent </title>
<path fill="none" stroke="black" stroke-dasharray="5,2" d="M722.84,-77.8C794.01,-77.8 931,-77.8 931,-77.8 931,-77.8 931,-106.76 931,-106.76"/>
<polygon fill="black" stroke="black" points="927.5,-106.76 931,-116.76 934.5,-106.76 927.5,-106.76"/>
</g>
<!-- DndDirective  -->
<g id="node11" class="node">
<title>DndDirective </title>
<polygon fill="#fb8072" stroke="black" points="858.69,-152.8 763.31,-152.8 763.31,-116.8 858.69,-116.8 858.69,-152.8"/>
<text text-anchor="middle" x="811" y="-130.6" font-family="Times,serif" font-size="14.00">DndDirective </text>
</g>
<!-- DndModule&#45;&gt;DndDirective  -->
<g id="edge10" class="edge">
<title>DndModule&#45;&gt;DndDirective </title>
<path fill="none" stroke="black" stroke-dasharray="5,2" d="M694.94,-85.05C694.94,-107.82 694.94,-143.8 694.94,-143.8 694.94,-143.8 753.13,-143.8 753.13,-143.8"/>
<polygon fill="black" stroke="black" points="753.13,-147.3 763.13,-143.8 753.13,-140.3 753.13,-147.3"/>
</g>
<!-- PagesModule -->
<g id="node15" class="node">
<title>PagesModule</title>
<polygon fill="#8dd3c7" stroke="black" points="1536.21,-152.8 1533.21,-156.8 1512.21,-156.8 1509.21,-152.8 1443.79,-152.8 1443.79,-116.8 1536.21,-116.8 1536.21,-152.8"/>
<text text-anchor="middle" x="1490" y="-130.6" font-family="Times,serif" font-size="14.00">PagesModule</text>
</g>
<!-- DndModule&#45;&gt;PagesModule -->
<g id="edge14" class="edge">
<title>DndModule&#45;&gt;PagesModule</title>
<path fill="none" stroke="black" d="M722.93,-56.8C853.65,-56.8 1245.03,-56.8 1245.03,-56.8 1245.03,-56.8 1245.03,-140.8 1245.03,-140.8 1245.03,-140.8 1433.63,-140.8 1433.63,-140.8"/>
<polygon fill="black" stroke="black" points="1433.63,-144.3 1443.63,-140.8 1433.63,-137.3 1433.63,-144.3"/>
</g>
<!-- DndComponent -->
<g id="node8" class="node">
<title>DndComponent</title>
<polygon fill="#ffffb3" stroke="black" points="1224.94,-152.8 1119.06,-152.8 1119.06,-116.8 1224.94,-116.8 1224.94,-152.8"/>
<text text-anchor="middle" x="1172" y="-130.6" font-family="Times,serif" font-size="14.00">DndComponent</text>
</g>
<!-- DndComponent&#45;&gt;DndModule -->
<g id="edge7" class="edge">
<title>DndComponent&#45;&gt;DndModule</title>
<path fill="none" stroke="black" d="M1172,-116.52C1172,-95.48 1172,-63.8 1172,-63.8 1172,-63.8 732.86,-63.8 732.86,-63.8"/>
<polygon fill="black" stroke="black" points="732.86,-60.3 722.86,-63.8 732.86,-67.3 732.86,-60.3"/>
</g>
<!-- DndDirective -->
<g id="node9" class="node">
<title>DndDirective</title>
<polygon fill="#ffffb3" stroke="black" points="1101.19,-152.8 1008.81,-152.8 1008.81,-116.8 1101.19,-116.8 1101.19,-152.8"/>
<text text-anchor="middle" x="1055" y="-130.6" font-family="Times,serif" font-size="14.00">DndDirective</text>
</g>
<!-- DndDirective&#45;&gt;DndModule -->
<g id="edge8" class="edge">
<title>DndDirective&#45;&gt;DndModule</title>
<path fill="none" stroke="black" d="M1055,-116.63C1055,-97.71 1055,-70.8 1055,-70.8 1055,-70.8 732.81,-70.8 732.81,-70.8"/>
<polygon fill="black" stroke="black" points="732.81,-67.3 722.81,-70.8 732.81,-74.3 732.81,-67.3"/>
</g>
<!-- HomeComponent -->
<g id="node12" class="node">
<title>HomeComponent</title>
<polygon fill="#ffffb3" stroke="black" points="1818.55,-84.8 1703.45,-84.8 1703.45,-48.8 1818.55,-48.8 1818.55,-84.8"/>
<text text-anchor="middle" x="1761" y="-62.6" font-family="Times,serif" font-size="14.00">HomeComponent</text>
</g>
<!-- HomeComponent&#45;&gt;PagesModule -->
<g id="edge11" class="edge">
<title>HomeComponent&#45;&gt;PagesModule</title>
<path fill="none" stroke="black" d="M1761,-85.09C1761,-107.01 1761,-140.8 1761,-140.8 1761,-140.8 1546.28,-140.8 1546.28,-140.8"/>
<polygon fill="black" stroke="black" points="1546.28,-137.3 1536.28,-140.8 1546.28,-144.3 1546.28,-137.3"/>
</g>
<!-- PagesComponent -->
<g id="node13" class="node">
<title>PagesComponent</title>
<polygon fill="#ffffb3" stroke="black" points="1684.99,-84.8 1571.01,-84.8 1571.01,-48.8 1684.99,-48.8 1684.99,-84.8"/>
<text text-anchor="middle" x="1628" y="-62.6" font-family="Times,serif" font-size="14.00">PagesComponent</text>
</g>
<!-- PagesComponent&#45;&gt;PagesModule -->
<g id="edge12" class="edge">
<title>PagesComponent&#45;&gt;PagesModule</title>
<path fill="none" stroke="black" d="M1628,-85.07C1628,-103.36 1628,-128.8 1628,-128.8 1628,-128.8 1546.34,-128.8 1546.34,-128.8"/>
<polygon fill="black" stroke="black" points="1546.34,-125.3 1536.34,-128.8 1546.34,-132.3 1546.34,-125.3"/>
</g>
<!-- SideBarComponent -->
<g id="node14" class="node">
<title>SideBarComponent</title>
<polygon fill="#ffffb3" stroke="black" points="1553.44,-84.8 1426.56,-84.8 1426.56,-48.8 1553.44,-48.8 1553.44,-84.8"/>
<text text-anchor="middle" x="1490" y="-62.6" font-family="Times,serif" font-size="14.00">SideBarComponent</text>
</g>
<!-- SideBarComponent&#45;&gt;PagesModule -->
<g id="edge13" class="edge">
<title>SideBarComponent&#45;&gt;PagesModule</title>
<path fill="none" stroke="black" d="M1490,-85.02C1490,-85.02 1490,-106.53 1490,-106.53"/>
<polygon fill="black" stroke="black" points="1486.5,-106.53 1490,-116.53 1493.5,-106.53 1486.5,-106.53"/>
</g>
<!-- PagesRoutingModule -->
<g id="node16" class="node">
<title>PagesRoutingModule</title>
<polygon fill="#8dd3c7" stroke="black" points="1402.83,-84.8 1399.83,-88.8 1378.83,-88.8 1375.83,-84.8 1265.17,-84.8 1265.17,-48.8 1402.83,-48.8 1402.83,-84.8"/>
<text text-anchor="middle" x="1334" y="-62.6" font-family="Times,serif" font-size="14.00">PagesRoutingModule</text>
</g>
<!-- PagesRoutingModule&#45;&gt;PagesModule -->
<g id="edge15" class="edge">
<title>PagesRoutingModule&#45;&gt;PagesModule</title>
<path fill="none" stroke="black" d="M1334,-85.07C1334,-103.36 1334,-128.8 1334,-128.8 1334,-128.8 1433.62,-128.8 1433.62,-128.8"/>
<polygon fill="black" stroke="black" points="1433.62,-132.3 1443.62,-128.8 1433.62,-125.3 1433.62,-132.3"/>
</g>
</g>
</svg>
